<svg id="visual" viewBox="0 0 900 450" width="900" height="450" xmlns="http://www.w3.org/2000/svg" xmlns:xlink="http://www.w3.org/1999/xlink" version="1.1"><rect x="0" y="0" width="900" height="450" fill="#000000"></rect><path d="M0 277L129 321L257 309L386 325L514 287L643 301L771 314L900 317L900 451L771 451L643 451L514 451L386 451L257 451L129 451L0 451Z" fill="#f5730a"></path><path d="M0 299L129 326L257 303L386 321L514 350L643 358L771 352L900 331L900 451L771 451L643 451L514 451L386 451L257 451L129 451L0 451Z" fill="#da5b09"></path><path d="M0 339L129 367L257 346L386 355L514 345L643 333L771 380L900 363L900 451L771 451L643 451L514 451L386 451L257 451L129 451L0 451Z" fill="#be4407"></path><path d="M0 388L129 368L257 389L386 368L514 367L643 383L771 369L900 387L900 451L771 451L643 451L514 451L386 451L257 451L129 451L0 451Z" fill="#a32d04"></path><path d="M0 420L129 402L257 427L386 406L514 397L643 424L771 424L900 410L900 451L771 451L643 451L514 451L386 451L257 451L129 451L0 451Z" fill="#871400"></path></svg>